<svg xmlns="http://www.w3.org/2000/svg" viewBox="0 0 1000 850"><rect width="1000" height="850" fill="white"/><text x="40" y="30" font-family="Arial" font-size="21">R18: centred terrace axes</text><rect x="40.0" y="60.0" width="9.9" height="528.0" fill="#a4cdaa"/><rect x="228.1" y="60.0" width="9.9" height="528.0" fill="#a4cdaa"/><rect x="49.9" y="578.1" width="178.2" height="9.9" fill="#a4cdaa"/><rect x="49.9" y="318.94" width="178.2" height="9.9" fill="#a4cdaa"/><rect x="49.9" y="60.0" width="178.2" height="9.9" fill="#a4cdaa"/><rect x="238.0" y="60.0" width="9.9" height="528.0" fill="#a4cdaa"/><rect x="426.1" y="60.0" width="9.9" height="528.0" fill="#a4cdaa"/><rect x="247.9" y="578.1" width="178.2" height="9.9" fill="#a4cdaa"/><rect x="247.9" y="318.94" width="178.2" height="9.9" fill="#a4cdaa"/><rect x="247.9" y="60.0" width="178.2" height="9.9" fill="#a4cdaa"/><rect x="40.0" y="592.84" width="9.9" height="259.16" fill="#356c4d"/><rect x="134.05" y="592.84" width="9.9" height="259.16" fill="#356c4d"/><rect x="233.05" y="592.84" width="9.9" height="259.16" fill="#356c4d"/><rect x="332.05" y="592.84" width="9.9" height="259.16" fill="#356c4d"/><rect x="431.05" y="592.84" width="4.95" height="259.16" fill="#356c4d"/><path d="M40.0,50v800" stroke="#9b5050" stroke-width=".7" stroke-dasharray="5 4"/><path d="M238.0,50v800" stroke="#9b5050" stroke-width=".7" stroke-dasharray="5 4"/><path d="M436.0,50v800" stroke="#9b5050" stroke-width=".7" stroke-dasharray="5 4"/><text x="540" y="30" font-family="Arial" font-size="21">R19: aligned bay-edge faces</text><rect x="540.0" y="60.0" width="9.9" height="528.0" fill="#a4cdaa"/><rect x="728.1" y="60.0" width="9.9" height="528.0" fill="#a4cdaa"/><rect x="549.9" y="578.1" width="178.2" height="9.9" fill="#a4cdaa"/><rect x="549.9" y="318.94" width="178.2" height="9.9" fill="#a4cdaa"/><rect x="549.9" y="60.0" width="178.2" height="9.9" fill="#a4cdaa"/><rect x="738.0" y="60.0" width="9.9" height="528.0" fill="#a4cdaa"/><rect x="926.1" y="60.0" width="9.9" height="528.0" fill="#a4cdaa"/><rect x="747.9" y="578.1" width="178.2" height="9.9" fill="#a4cdaa"/><rect x="747.9" y="318.94" width="178.2" height="9.9" fill="#a4cdaa"/><rect x="747.9" y="60.0" width="178.2" height="9.9" fill="#a4cdaa"/><rect x="540.0" y="592.84" width="9.9" height="259.16" fill="#356c4d"/><rect x="634.05" y="592.84" width="9.9" height="259.16" fill="#356c4d"/><rect x="728.1" y="592.84" width="9.9" height="259.16" fill="#356c4d"/><rect x="738.0" y="592.84" width="9.9" height="259.16" fill="#356c4d"/><rect x="832.05" y="592.84" width="9.9" height="259.16" fill="#356c4d"/><rect x="926.1" y="592.84" width="9.9" height="259.16" fill="#356c4d"/><path d="M540.0,50v800" stroke="#9b5050" stroke-width=".7" stroke-dasharray="5 4"/><path d="M738.0,50v800" stroke="#9b5050" stroke-width=".7" stroke-dasharray="5 4"/><path d="M936.0,50v800" stroke="#9b5050" stroke-width=".7" stroke-dasharray="5 4"/><text x="40" y="837" font-family="Arial" font-size="15">900 mm bay edges align exactly; terrace keeps intermediate decking supports. Floor bays unchanged.</text></svg>